<?xml version="1.0" encoding="UTF-8" standalone="no"?>
<svg
   xmlns:dc="http://purl.org/dc/elements/1.1/"
   xmlns:cc="http://creativecommons.org/ns#"
   xmlns:rdf="http://www.w3.org/1999/02/22-rdf-syntax-ns#"
   xmlns:svg="http://www.w3.org/2000/svg"
   xmlns="http://www.w3.org/2000/svg"
   xmlns:sodipodi="http://sodipodi.sourceforge.net/DTD/sodipodi-0.dtd"
   xmlns:inkscape="http://www.inkscape.org/namespaces/inkscape"
   version="1.1"
   id="svg2"
   xml:space="preserve"
   width="793.33331"
   height="1122.6667"
   viewBox="0 0 793.33331 1122.6667"
   sodipodi:docname="Logo.ai"><metadata
     id="metadata8"><rdf:RDF><cc:Work
         rdf:about=""><dc:format>image/svg+xml</dc:format><dc:type
           rdf:resource="http://purl.org/dc/dcmitype/StillImage" /></cc:Work></rdf:RDF></metadata><defs
     id="defs6"><clipPath
       clipPathUnits="userSpaceOnUse"
       id="clipPath28"><path
         d="M 0,842 H 595 V 0 H 0 Z"
         id="path26" /></clipPath><clipPath
       clipPathUnits="userSpaceOnUse"
       id="clipPath48"><path
         d="M 0,842 H 595 V 0 H 0 Z"
         id="path46" /></clipPath></defs><sodipodi:namedview
     pagecolor="#ffffff"
     bordercolor="#666666"
     borderopacity="1"
     objecttolerance="10"
     gridtolerance="10"
     guidetolerance="10"
     inkscape:pageopacity="0"
     inkscape:pageshadow="2"
     inkscape:window-width="640"
     inkscape:window-height="480"
     id="namedview4" /><g
     id="g10"
     inkscape:groupmode="layer"
     inkscape:label="Logo"
     transform="matrix(1.3333333,0,0,-1.3333333,0,1122.6667)"><path
       d="M 496.654,279.055 H 101.027 v 367.541 h 395.627 z"
       style="fill:#1a0d0a;fill-opacity:1;fill-rule:evenodd;stroke:none"
       id="path12" /><g
       id="g14"
       transform="translate(473.4247,464.4634)"><path
         d="M 0,0 -176.222,-176.222 -352.444,0 -176.222,176.222 Z"
         style="fill:#b72725;fill-opacity:1;fill-rule:evenodd;stroke:none"
         id="path16" /></g><text
       transform="matrix(1,0,0,-0.96662238,253.1504,494.8291)"
       style="font-variant:normal;font-weight:bold;font-stretch:normal;font-size:67.8209px;font-family:'Arial Rounded MT Bold';-inkscape-font-specification:ArialRoundedMTBold;writing-mode:lr-tb;fill:#000000;fill-opacity:1;fill-rule:nonzero;stroke:none"
       id="text20"><tspan
         x="0 40.082153"
         y="0"
         sodipodi:role="line"
         id="tspan18">LA</tspan></text><g
       id="g22"><g
         id="g24"
         clip-path="url(#clipPath28)"><g
           id="g30"
           transform="translate(266.7114,541.1318)"><path
             d="m 0,0 c -0.917,0.95 -2.114,1.425 -3.593,1.425 -1.457,0 -2.633,-0.481 -3.527,-1.441 -0.894,-0.96 -1.341,-2.401 -1.341,-4.321 v -36.14 c 0,-2.048 0.469,-3.532 1.407,-4.449 0.938,-0.918 2.478,-1.377 4.62,-1.377 H 21.31 c 1.611,0 2.836,0.357 3.675,1.073 0.839,0.714 1.259,1.648 1.259,2.8 0,1.131 -0.425,2.07 -1.275,2.817 -0.85,0.747 -2.07,1.121 -3.659,1.121 H 1.374 V -4.337 C 1.374,-2.396 0.916,-0.95 0,0 Z"
             style="fill:none;stroke:#ffffff;stroke-width:1;stroke-linecap:butt;stroke-linejoin:miter;stroke-miterlimit:10;stroke-dasharray:none;stroke-opacity:1"
             id="path32" /></g><g
           id="g34"
           transform="translate(330.6904,497.6299)"><path
             d="m 0,0 c 0.431,-0.95 0.833,-1.654 1.209,-2.113 0.375,-0.459 0.839,-0.821 1.391,-1.088 0.551,-0.266 1.213,-0.4 1.987,-0.4 1.324,0 2.455,0.454 3.394,1.36 0.938,0.907 1.408,1.905 1.408,2.993 0,1.046 -0.497,2.721 -1.491,5.026 L -4.785,36.06 c -0.596,1.515 -1.088,2.726 -1.474,3.633 -0.387,0.907 -0.861,1.755 -1.424,2.545 -0.563,0.789 -1.302,1.435 -2.218,1.936 -0.916,0.502 -2.059,0.753 -3.428,0.753 -1.347,0 -2.479,-0.251 -3.395,-0.753 -0.916,-0.501 -1.655,-1.157 -2.218,-1.968 -0.563,-0.811 -1.093,-1.831 -1.589,-3.057 -0.497,-1.228 -0.923,-2.278 -1.276,-3.153 L -34.225,5.522 c -0.508,-1.216 -0.872,-2.167 -1.093,-2.849 -0.221,-0.683 -0.331,-1.344 -0.331,-1.985 0,-1.109 0.475,-2.102 1.424,-2.977 0.949,-0.875 2.042,-1.312 3.279,-1.312 1.457,0 2.505,0.411 3.145,1.232 0.641,0.822 1.413,2.406 2.319,4.754 l 2.318,6.018 h 19.736 l 2.319,-5.89 C -0.801,1.787 -0.431,0.949 0,0 Z m -13.396,34.907 7.32,-19.366 h -14.505 z"
             style="fill:none;stroke:#ffffff;stroke-width:1;stroke-linecap:butt;stroke-linejoin:miter;stroke-miterlimit:10;stroke-dasharray:none;stroke-opacity:1"
             id="path36" /></g></g></g><text
       transform="matrix(1,0,0,-0.99771402,184.9292,449.5996)"
       style="font-variant:normal;font-weight:bold;font-stretch:normal;font-size:31.7151px;font-family:'Arial Rounded MT Bold';-inkscape-font-specification:ArialRoundedMTBold;writing-mode:lr-tb;fill:#ffffff;fill-opacity:1;fill-rule:nonzero;stroke:none"
       id="text40"><tspan
         x="0 19.403297 27.998091 36.592884 55.431652 72.621239 80.550011 104.65349 112.58226 136.05144 144.64622 155.87337 173.92879 193.0847 211.92348 231.07939"
         y="0"
         sodipodi:role="line"
         id="tspan38">Tiles &amp; Kitchens</tspan></text><g
       id="g42"><g
         id="g44"
         clip-path="url(#clipPath48)"><g
           id="g50"
           transform="translate(203.915,468.9824)"><path
             d="m 0,0 c 0.392,0.345 0.588,0.801 0.588,1.367 0,0.567 -0.193,1.025 -0.58,1.375 -0.387,0.35 -0.979,0.526 -1.774,0.526 h -14.618 c -0.754,0 -1.329,-0.17 -1.727,-0.51 -0.397,-0.34 -0.596,-0.804 -0.596,-1.391 0,-0.566 0.191,-1.022 0.573,-1.367 0.382,-0.345 0.965,-0.518 1.75,-0.518 h 5.017 v -16.455 c 0,-0.937 0.214,-1.637 0.643,-2.101 0.428,-0.463 0.983,-0.695 1.664,-0.695 0.672,0 1.219,0.229 1.642,0.687 0.423,0.458 0.635,1.162 0.635,2.109 v 16.455 h 5.017 c 0.785,0 1.373,0.173 1.766,0.518 z"
             style="fill:none;stroke:#231f20;stroke-width:1;stroke-linecap:butt;stroke-linejoin:miter;stroke-miterlimit:10;stroke-dasharray:none;stroke-opacity:1"
             id="path52" /></g><g
           id="g54"
           transform="translate(210.1401,465.73)"><path
             d="M 0,0 C -0.402,0.422 -0.914,0.633 -1.533,0.633 -2.152,0.633 -2.656,0.422 -3.043,0 -3.43,-0.422 -3.624,-1.051 -3.624,-1.885 v -12.067 c 0,-0.824 0.194,-1.458 0.581,-1.9 0.387,-0.443 0.891,-0.665 1.51,-0.665 0.619,0 1.131,0.217 1.533,0.649 0.403,0.433 0.604,1.072 0.604,1.916 V -1.761 C 0.604,-1.01 0.403,-0.422 0,0 Z m -0.016,3.144 c 0.413,0.366 0.62,0.873 0.62,1.522 0,0.669 -0.212,1.179 -0.635,1.53 -0.423,0.349 -0.908,0.525 -1.456,0.525 -0.568,0 -1.066,-0.193 -1.494,-0.579 -0.429,-0.387 -0.643,-0.879 -0.643,-1.476 0,-0.659 0.209,-1.169 0.627,-1.53 0.419,-0.36 0.922,-0.54 1.51,-0.54 0.568,0 1.059,0.182 1.471,0.548 z"
             style="fill:none;stroke:#231f20;stroke-width:1;stroke-linecap:butt;stroke-linejoin:miter;stroke-miterlimit:10;stroke-dasharray:none;stroke-opacity:1"
             id="path56" /></g><g
           id="g58"
           transform="translate(215.6919,449.8779)"><path
             d="m 0,0 c 0.387,-0.443 0.891,-0.665 1.51,-0.665 0.63,0 1.143,0.214 1.541,0.642 0.397,0.427 0.596,1.068 0.596,1.923 v 18.293 c 0,0.855 -0.196,1.496 -0.588,1.924 -0.393,0.427 -0.909,0.641 -1.549,0.641 -0.64,0 -1.149,-0.216 -1.526,-0.649 -0.377,-0.432 -0.565,-1.071 -0.565,-1.916 V 1.9 C -0.581,1.076 -0.387,0.442 0,0 Z"
             style="fill:none;stroke:#231f20;stroke-width:1;stroke-linecap:butt;stroke-linejoin:miter;stroke-miterlimit:10;stroke-dasharray:none;stroke-opacity:1"
             id="path60" /></g><g
           id="g62"
           transform="translate(238.0767,457.2246)"><path
             d="m 0,0 c 0.609,0.314 0.914,1.001 0.914,2.063 0,1.143 -0.294,2.265 -0.883,3.368 -0.588,1.102 -1.474,2.001 -2.656,2.696 -1.182,0.695 -2.599,1.042 -4.25,1.042 -1.271,0 -2.427,-0.203 -3.469,-0.609 -1.043,-0.408 -1.921,-0.992 -2.633,-1.754 -0.712,-0.763 -1.254,-1.677 -1.626,-2.743 -0.372,-1.066 -0.558,-2.222 -0.558,-3.468 0,-2.648 0.754,-4.743 2.262,-6.289 1.507,-1.545 3.618,-2.317 6.333,-2.317 1.187,0 2.238,0.154 3.151,0.463 0.914,0.309 1.673,0.698 2.277,1.167 0.604,0.468 1.055,0.958 1.355,1.467 0.299,0.51 0.449,0.956 0.449,1.337 0,0.432 -0.134,0.767 -0.402,1.004 -0.269,0.237 -0.62,0.356 -1.054,0.356 -0.402,0 -0.712,-0.093 -0.929,-0.279 -0.526,-0.494 -0.955,-0.885 -1.285,-1.173 -0.33,-0.289 -0.692,-0.56 -1.084,-0.812 -0.392,-0.252 -0.798,-0.438 -1.216,-0.556 -0.418,-0.119 -0.88,-0.178 -1.386,-0.178 -0.753,0 -1.442,0.186 -2.067,0.556 -0.625,0.371 -1.125,0.922 -1.502,1.654 -0.377,0.731 -0.571,1.576 -0.581,2.534 h 8.27 c 1.104,0 1.961,0.157 2.57,0.471 z m -9.609,5.145 c 0.676,0.726 1.541,1.089 2.594,1.089 1.105,0 1.995,-0.358 2.671,-1.074 0.677,-0.716 1.066,-1.795 1.17,-3.237 h -7.666 c 0.145,1.422 0.555,2.495 1.231,3.222 z"
             style="fill:none;stroke:#231f20;stroke-width:1;stroke-linecap:butt;stroke-linejoin:miter;stroke-miterlimit:10;stroke-dasharray:none;stroke-opacity:1"
             id="path64" /></g><g
           id="g66"
           transform="translate(255.5215,456.792)"><path
             d="m 0,0 c -0.428,0.603 -1.058,1.125 -1.889,1.568 -0.831,0.443 -1.903,0.824 -3.214,1.143 -1.105,0.268 -1.972,0.495 -2.601,0.68 -0.63,0.186 -1.13,0.42 -1.502,0.703 -0.372,0.283 -0.558,0.646 -0.558,1.09 0,0.483 0.253,0.888 0.759,1.212 0.506,0.325 1.141,0.487 1.905,0.487 0.743,0 1.331,-0.124 1.765,-0.371 0.434,-0.247 0.811,-0.577 1.131,-0.989 0.392,-0.494 0.74,-0.865 1.045,-1.112 0.305,-0.247 0.674,-0.371 1.107,-0.371 0.599,0 1.061,0.155 1.386,0.463 0.325,0.309 0.488,0.706 0.488,1.19 0,0.443 -0.153,0.896 -0.457,1.36 -0.304,0.464 -0.748,0.885 -1.332,1.267 -0.583,0.381 -1.311,0.685 -2.183,0.911 -0.872,0.227 -1.856,0.34 -2.95,0.34 -1.394,0 -2.584,-0.224 -3.569,-0.672 -0.987,-0.448 -1.733,-1.048 -2.238,-1.8 -0.507,-0.752 -0.759,-1.55 -0.759,-2.394 0,-0.948 0.273,-1.747 0.821,-2.395 0.547,-0.649 1.277,-1.172 2.191,-1.569 0.913,-0.396 2.098,-0.775 3.554,-1.135 1.29,-0.309 2.217,-0.634 2.78,-0.974 0.562,-0.34 0.843,-0.88 0.843,-1.622 0,-0.484 -0.271,-0.914 -0.813,-1.29 -0.542,-0.376 -1.236,-0.564 -2.083,-0.564 -1.042,0 -1.865,0.185 -2.469,0.556 -0.604,0.371 -1.123,0.933 -1.556,1.684 -0.217,0.392 -0.445,0.696 -0.682,0.912 -0.238,0.216 -0.578,0.324 -1.022,0.324 -0.506,0 -0.924,-0.164 -1.254,-0.494 -0.331,-0.33 -0.496,-0.726 -0.496,-1.19 0,-0.7 0.258,-1.398 0.774,-2.093 0.516,-0.695 1.317,-1.275 2.401,-1.738 1.084,-0.464 2.385,-0.696 3.902,-0.696 1.59,0 2.94,0.214 4.049,0.642 1.11,0.427 1.949,1.055 2.517,1.884 0.568,0.829 0.852,1.826 0.852,2.99 C 0.643,-1.291 0.428,-0.603 0,0 Z"
             style="fill:none;stroke:#231f20;stroke-width:1;stroke-linecap:butt;stroke-linejoin:miter;stroke-miterlimit:10;stroke-dasharray:none;stroke-opacity:1"
             id="path68" /></g><g
           id="g70"
           transform="translate(270.9922,465.104)"><path
             d="M 0,0 C 0.397,-0.757 0.983,-1.62 1.757,-2.588 0.89,-3.031 0.129,-3.487 -0.527,-3.955 c -0.656,-0.469 -1.207,-0.963 -1.657,-1.483 -0.449,-0.52 -0.797,-1.103 -1.045,-1.746 -0.248,-0.644 -0.372,-1.352 -0.372,-2.125 0,-0.803 0.165,-1.594 0.496,-2.371 0.33,-0.778 0.836,-1.487 1.518,-2.125 0.681,-0.639 1.535,-1.146 2.563,-1.522 1.026,-0.376 2.186,-0.564 3.476,-0.564 1.012,0 1.928,0.099 2.749,0.294 0.82,0.196 1.59,0.494 2.307,0.896 0.718,0.402 1.412,0.917 2.083,1.545 1.476,-1.205 2.441,-1.962 2.896,-2.271 0.454,-0.309 0.924,-0.464 1.409,-0.464 0.475,0 0.906,0.183 1.293,0.549 0.387,0.365 0.581,0.816 0.581,1.352 0,0.402 -0.096,0.723 -0.287,0.966 -0.191,0.241 -0.702,0.697 -1.533,1.367 -0.831,0.669 -1.437,1.169 -1.819,1.498 0.609,1.01 1.073,1.929 1.393,2.759 0.32,0.828 0.48,1.47 0.48,1.923 0,0.495 -0.185,0.914 -0.557,1.259 -0.372,0.345 -0.8,0.518 -1.285,0.518 -0.516,0 -0.917,-0.175 -1.201,-0.526 -0.284,-0.35 -0.588,-0.921 -0.913,-1.714 -0.325,-0.794 -0.566,-1.334 -0.72,-1.623 -0.341,0.33 -0.718,0.726 -1.131,1.19 -0.413,0.463 -0.841,0.963 -1.285,1.498 -0.444,0.536 -0.924,1.107 -1.44,1.715 1.486,0.886 2.611,1.757 3.376,2.612 0.764,0.855 1.146,1.859 1.146,3.012 0,0.845 -0.235,1.659 -0.705,2.442 -0.47,0.782 -1.18,1.416 -2.129,1.9 C 8.21,7.29 7.084,7.532 5.784,7.532 4.473,7.532 3.332,7.3 2.361,6.837 1.391,6.374 0.655,5.748 0.155,4.96 -0.346,4.172 -0.596,3.299 -0.596,2.341 -0.596,1.538 -0.397,0.757 0,0 Z m 6.419,-8.158 c 0.733,-0.829 1.559,-1.666 2.477,-2.51 -0.475,-0.454 -0.934,-0.832 -1.378,-1.136 -0.444,-0.304 -0.914,-0.538 -1.409,-0.703 -0.496,-0.165 -1.006,-0.247 -1.533,-0.247 -0.537,0 -1.048,0.098 -1.533,0.294 -0.485,0.195 -0.912,0.479 -1.278,0.849 -0.367,0.371 -0.645,0.773 -0.836,1.205 -0.191,0.433 -0.286,0.886 -0.286,1.36 0,0.834 0.26,1.555 0.781,2.163 0.522,0.608 1.309,1.215 2.362,1.823 1.022,-1.236 1.9,-2.269 2.633,-3.098 z M 4.312,0.502 C 4.044,0.853 3.819,1.205 3.639,1.561 3.458,1.916 3.368,2.248 3.368,2.557 c 0,0.597 0.24,1.118 0.72,1.561 0.48,0.443 1.077,0.664 1.789,0.664 C 6.589,4.782 7.18,4.566 7.65,4.133 8.12,3.701 8.354,3.165 8.354,2.526 8.354,1.877 8.12,1.324 7.65,0.865 7.18,0.407 6.419,-0.157 5.366,-0.827 4.932,-0.291 4.581,0.152 4.312,0.502 Z"
             style="fill:none;stroke:#231f20;stroke-width:1;stroke-linecap:butt;stroke-linejoin:miter;stroke-miterlimit:10;stroke-dasharray:none;stroke-opacity:1"
             id="path72" /></g><g
           id="g74"
           transform="translate(303.9771,471.9487)"><path
             d="m 0,0 c -0.429,0.458 -0.989,0.687 -1.68,0.687 -0.702,0 -1.257,-0.231 -1.665,-0.695 -0.408,-0.463 -0.612,-1.159 -0.612,-2.086 v -16.841 c 0,-0.721 0.016,-1.272 0.047,-1.653 0.031,-0.381 0.118,-0.716 0.263,-1.004 0.196,-0.35 0.475,-0.628 0.836,-0.834 0.362,-0.206 0.738,-0.309 1.131,-0.309 0.681,0 1.239,0.229 1.672,0.687 0.434,0.458 0.651,1.161 0.651,2.109 v 4.682 l 3.763,3.6 L 9.841,-20 c 0.217,-0.372 0.465,-0.784 0.743,-1.237 0.28,-0.453 0.62,-0.816 1.023,-1.089 0.402,-0.273 0.924,-0.409 1.563,-0.409 0.682,0 1.221,0.185 1.619,0.556 0.397,0.37 0.596,0.808 0.596,1.313 0,0.453 -0.113,0.919 -0.341,1.398 -0.227,0.479 -0.567,1.038 -1.021,1.677 l -6.442,9.208 5.589,5.284 c 0.692,0.659 1.038,1.324 1.038,1.993 0,0.556 -0.204,1.028 -0.612,1.414 -0.407,0.387 -0.941,0.579 -1.602,0.579 -0.506,0 -0.911,-0.107 -1.216,-0.324 -0.305,-0.216 -0.673,-0.551 -1.107,-1.004 l -9.028,-9.394 v 7.941 C 0.643,-1.156 0.428,-0.458 0,0 Z"
             style="fill:none;stroke:#231f20;stroke-width:1;stroke-linecap:butt;stroke-linejoin:miter;stroke-miterlimit:10;stroke-dasharray:none;stroke-opacity:1"
             id="path76" /></g><g
           id="g78"
           transform="translate(326.7959,465.73)"><path
             d="m 0,0 c -0.403,0.422 -0.914,0.633 -1.533,0.633 -0.62,0 -1.123,-0.211 -1.51,-0.633 -0.388,-0.422 -0.581,-1.051 -0.581,-1.885 v -12.067 c 0,-0.824 0.193,-1.458 0.581,-1.9 0.387,-0.443 0.89,-0.665 1.51,-0.665 0.619,0 1.13,0.217 1.533,0.649 0.402,0.433 0.604,1.072 0.604,1.916 V -1.761 C 0.604,-1.01 0.402,-0.422 0,0 Z m -0.016,3.144 c 0.412,0.366 0.62,0.873 0.62,1.522 0,0.669 -0.212,1.179 -0.635,1.53 -0.424,0.349 -0.909,0.525 -1.456,0.525 -0.568,0 -1.066,-0.193 -1.494,-0.579 -0.429,-0.387 -0.643,-0.879 -0.643,-1.476 0,-0.659 0.209,-1.169 0.627,-1.53 0.418,-0.36 0.922,-0.54 1.51,-0.54 0.568,0 1.058,0.182 1.471,0.548 z"
             style="fill:none;stroke:#231f20;stroke-width:1;stroke-linecap:butt;stroke-linejoin:miter;stroke-miterlimit:10;stroke-dasharray:none;stroke-opacity:1"
             id="path80" /></g><g
           id="g82"
           transform="translate(330.5352,465.5679)"><path
             d="m 0,0 c -0.335,-0.284 -0.503,-0.646 -0.503,-1.089 0,-0.443 0.16,-0.809 0.48,-1.098 0.32,-0.288 0.785,-0.432 1.394,-0.432 h 0.557 v -8.096 c 0,-1.308 0.106,-2.354 0.318,-3.137 0.211,-0.782 0.658,-1.396 1.339,-1.838 0.682,-0.443 1.683,-0.664 3.005,-0.664 1.393,0 2.462,0.18 3.205,0.54 0.743,0.361 1.115,0.881 1.115,1.561 0,0.401 -0.137,0.739 -0.41,1.012 -0.274,0.273 -0.581,0.409 -0.922,0.409 -0.237,0 -0.567,-0.044 -0.991,-0.131 -0.423,-0.088 -0.759,-0.131 -1.007,-0.131 -0.454,0 -0.781,0.11 -0.982,0.332 -0.202,0.221 -0.326,0.51 -0.372,0.865 -0.047,0.355 -0.07,0.862 -0.07,1.522 v 7.756 h 0.789 c 0.837,0 1.48,0.113 1.929,0.34 0.448,0.226 0.673,0.623 0.673,1.19 C 9.547,-0.646 9.39,-0.284 9.075,0 8.76,0.283 8.303,0.425 7.704,0.425 H 6.156 V 3.298 C 6.156,4.009 6.117,4.558 6.04,4.944 5.962,5.33 5.779,5.657 5.49,5.925 5.057,6.327 4.571,6.528 4.034,6.528 3.652,6.528 3.307,6.437 2.997,6.257 2.688,6.077 2.449,5.842 2.284,5.554 2.119,5.276 2.019,4.944 1.982,4.558 1.946,4.171 1.928,3.638 1.928,2.958 V 0.425 H 1.464 C 0.823,0.425 0.336,0.283 0,0 Z"
             style="fill:none;stroke:#231f20;stroke-width:1;stroke-linecap:butt;stroke-linejoin:miter;stroke-miterlimit:10;stroke-dasharray:none;stroke-opacity:1"
             id="path84" /></g><g
           id="g86"
           transform="translate(357.6436,455.687)"><path
             d="m 0,0 c -0.341,0.392 -0.77,0.587 -1.285,0.587 -0.434,0 -0.8,-0.134 -1.1,-0.401 -0.3,-0.269 -0.578,-0.639 -0.836,-1.113 -0.465,-0.803 -0.999,-1.401 -1.602,-1.792 -0.605,-0.392 -1.33,-0.587 -2.176,-0.587 -0.63,0 -1.208,0.12 -1.735,0.363 -0.527,0.242 -0.976,0.597 -1.347,1.066 -0.372,0.468 -0.656,1.035 -0.852,1.699 -0.196,0.665 -0.295,1.393 -0.295,2.187 0,1.689 0.382,3.02 1.147,3.993 0.764,0.974 1.77,1.461 3.019,1.461 0.868,0 1.583,-0.196 2.145,-0.588 0.563,-0.391 1.103,-0.978 1.618,-1.761 0.289,-0.402 0.55,-0.693 0.782,-0.873 0.233,-0.18 0.525,-0.27 0.875,-0.27 0.538,0 0.995,0.175 1.371,0.525 0.376,0.35 0.565,0.778 0.565,1.283 0,0.494 -0.168,1.027 -0.503,1.599 -0.336,0.571 -0.82,1.109 -1.456,1.614 -0.635,0.505 -1.409,0.917 -2.322,1.237 -0.914,0.318 -1.918,0.478 -3.012,0.478 -1.766,0 -3.283,-0.363 -4.554,-1.089 -1.269,-0.726 -2.24,-1.754 -2.911,-3.082 -0.671,-1.329 -1.007,-2.859 -1.007,-4.589 0,-2.555 0.734,-4.592 2.2,-6.111 1.465,-1.519 3.504,-2.279 6.117,-2.279 1.228,0 2.333,0.165 3.313,0.495 0.982,0.329 1.794,0.764 2.44,1.305 0.645,0.541 1.125,1.11 1.44,1.707 0.315,0.598 0.472,1.159 0.472,1.685 C 0.511,-0.809 0.341,-0.392 0,0 Z"
             style="fill:none;stroke:#231f20;stroke-width:1;stroke-linecap:butt;stroke-linejoin:miter;stroke-miterlimit:10;stroke-dasharray:none;stroke-opacity:1"
             id="path88" /></g><g
           id="g90"
           transform="translate(364.6201,471.9873)"><path
             d="m 0,0 c -0.377,0.433 -0.9,0.649 -1.571,0.649 -0.661,0 -1.175,-0.214 -1.541,-0.641 -0.367,-0.428 -0.55,-1.069 -0.55,-1.924 v -18.293 c 0,-1.71 0.696,-2.565 2.091,-2.565 0.671,0 1.194,0.219 1.571,0.657 0.377,0.437 0.565,1.074 0.565,1.908 v 5.578 c 0,1.606 0.114,2.724 0.341,3.352 0.299,0.742 0.751,1.326 1.355,1.754 0.604,0.427 1.283,0.641 2.037,0.641 1.125,0 1.889,-0.363 2.291,-1.089 0.403,-0.726 0.604,-1.764 0.604,-3.113 v -7.123 c 0,-1.71 0.697,-2.565 2.091,-2.565 0.64,0 1.154,0.216 1.54,0.649 0.388,0.433 0.581,1.071 0.581,1.916 v 8.081 c 0,0.813 -0.051,1.531 -0.154,2.155 -0.104,0.623 -0.305,1.187 -0.605,1.692 -0.474,0.865 -1.127,1.524 -1.958,1.977 -0.832,0.453 -1.784,0.68 -2.858,0.68 -0.712,0 -1.378,-0.09 -1.997,-0.271 C 3.214,-6.075 2.648,-6.345 2.137,-6.706 1.626,-7.066 1.102,-7.555 0.565,-8.173 v 6.257 C 0.565,-1.071 0.377,-0.433 0,0 Z"
             style="fill:none;stroke:#231f20;stroke-width:1;stroke-linecap:butt;stroke-linejoin:miter;stroke-miterlimit:10;stroke-dasharray:none;stroke-opacity:1"
             id="path92" /></g><g
           id="g94"
           transform="translate(394.5781,457.2246)"><path
             d="m 0,0 c 0.608,0.314 0.913,1.001 0.913,2.063 0,1.143 -0.294,2.265 -0.883,3.368 -0.588,1.102 -1.473,2.001 -2.655,2.696 -1.183,0.695 -2.6,1.042 -4.251,1.042 -1.27,0 -2.426,-0.203 -3.469,-0.609 -1.043,-0.408 -1.92,-0.992 -2.633,-1.754 -0.711,-0.763 -1.253,-1.677 -1.626,-2.743 -0.372,-1.066 -0.557,-2.222 -0.557,-3.468 0,-2.648 0.754,-4.743 2.261,-6.289 1.507,-1.545 3.619,-2.317 6.334,-2.317 1.187,0 2.238,0.154 3.151,0.463 0.914,0.309 1.673,0.698 2.276,1.167 0.605,0.468 1.056,0.958 1.356,1.467 0.299,0.51 0.449,0.956 0.449,1.337 0,0.432 -0.135,0.767 -0.403,1.004 -0.269,0.237 -0.619,0.356 -1.053,0.356 -0.402,0 -0.712,-0.093 -0.929,-0.279 -0.527,-0.494 -0.955,-0.885 -1.286,-1.173 -0.33,-0.289 -0.691,-0.56 -1.084,-0.812 -0.392,-0.252 -0.797,-0.438 -1.216,-0.556 -0.418,-0.119 -0.88,-0.178 -1.385,-0.178 -0.754,0 -1.443,0.186 -2.068,0.556 -0.624,0.371 -1.125,0.922 -1.502,1.654 -0.377,0.731 -0.57,1.576 -0.581,2.534 h 8.27 c 1.104,0 1.962,0.157 2.571,0.471 z m -9.609,5.145 c 0.675,0.726 1.541,1.089 2.593,1.089 1.105,0 1.995,-0.358 2.672,-1.074 0.676,-0.716 1.066,-1.795 1.169,-3.237 h -7.666 c 0.145,1.422 0.556,2.495 1.232,3.222 z"
             style="fill:none;stroke:#231f20;stroke-width:1;stroke-linecap:butt;stroke-linejoin:miter;stroke-miterlimit:10;stroke-dasharray:none;stroke-opacity:1"
             id="path96" /></g><g
           id="g98"
           transform="translate(402.623,465.313)"><path
             d="m 0,0 c -0.181,0.35 -0.421,0.612 -0.72,0.788 -0.3,0.175 -0.634,0.262 -1.007,0.262 -0.609,0 -1.089,-0.198 -1.44,-0.594 -0.351,-0.397 -0.526,-0.997 -0.526,-1.8 v -12.191 c 0,-0.824 0.196,-1.458 0.589,-1.9 0.391,-0.443 0.892,-0.665 1.501,-0.665 0.63,0 1.144,0.214 1.541,0.642 0.397,0.427 0.596,1.068 0.596,1.923 v 5.284 c 0,1.72 0.104,2.895 0.31,3.523 0.289,0.783 0.743,1.398 1.363,1.846 0.619,0.448 1.306,0.673 2.06,0.673 1.156,0 1.927,-0.369 2.315,-1.105 0.387,-0.737 0.58,-1.8 0.58,-3.191 v -7.03 c 0,-0.824 0.196,-1.458 0.589,-1.9 0.392,-0.443 0.903,-0.665 1.533,-0.665 0.619,0 1.122,0.217 1.51,0.649 0.387,0.433 0.58,1.072 0.58,1.916 v 7.849 c 0,0.927 -0.041,1.689 -0.123,2.287 -0.083,0.597 -0.264,1.153 -0.542,1.669 -0.434,0.885 -1.09,1.57 -1.967,2.054 C 7.864,0.808 6.868,1.05 5.753,1.05 4.607,1.05 3.593,0.821 2.71,0.363 1.827,-0.096 1.015,-0.814 0.271,-1.792 v 0.509 C 0.271,-0.778 0.181,-0.351 0,0 Z"
             style="fill:none;stroke:#231f20;stroke-width:1;stroke-linecap:butt;stroke-linejoin:miter;stroke-miterlimit:10;stroke-dasharray:none;stroke-opacity:1"
             id="path100" /></g><g
           id="g102"
           transform="translate(431.1797,456.792)"><path
             d="m 0,0 c -0.429,0.603 -1.059,1.125 -1.89,1.568 -0.831,0.443 -1.902,0.824 -3.213,1.143 -1.105,0.268 -1.972,0.495 -2.602,0.68 -0.629,0.186 -1.13,0.42 -1.502,0.703 -0.371,0.283 -0.558,0.646 -0.558,1.09 0,0.483 0.253,0.888 0.759,1.212 0.506,0.325 1.141,0.487 1.905,0.487 0.744,0 1.332,-0.124 1.766,-0.371 0.434,-0.247 0.81,-0.577 1.13,-0.989 0.392,-0.494 0.741,-0.865 1.046,-1.112 0.304,-0.247 0.673,-0.371 1.106,-0.371 0.599,0 1.062,0.155 1.387,0.463 0.325,0.309 0.487,0.706 0.487,1.19 0,0.443 -0.152,0.896 -0.457,1.36 -0.304,0.464 -0.748,0.885 -1.331,1.267 -0.584,0.381 -1.311,0.685 -2.183,0.911 -0.873,0.227 -1.857,0.34 -2.951,0.34 -1.393,0 -2.584,-0.224 -3.569,-0.672 -0.986,-0.448 -1.732,-1.048 -2.238,-1.8 -0.506,-0.752 -0.759,-1.55 -0.759,-2.394 0,-0.948 0.273,-1.747 0.821,-2.395 0.547,-0.649 1.278,-1.172 2.192,-1.569 0.913,-0.396 2.097,-0.775 3.553,-1.135 1.29,-0.309 2.217,-0.634 2.78,-0.974 0.562,-0.34 0.844,-0.88 0.844,-1.622 0,-0.484 -0.271,-0.914 -0.813,-1.29 -0.542,-0.376 -1.236,-0.564 -2.083,-0.564 -1.043,0 -1.866,0.185 -2.47,0.556 -0.604,0.371 -1.123,0.933 -1.556,1.684 -0.217,0.392 -0.444,0.696 -0.681,0.912 -0.238,0.216 -0.579,0.324 -1.023,0.324 -0.505,0 -0.923,-0.164 -1.254,-0.494 -0.331,-0.33 -0.496,-0.726 -0.496,-1.19 0,-0.7 0.258,-1.398 0.775,-2.093 0.515,-0.695 1.316,-1.275 2.4,-1.738 1.084,-0.464 2.385,-0.696 3.903,-0.696 1.589,0 2.939,0.214 4.049,0.642 1.11,0.427 1.949,1.055 2.517,1.884 0.567,0.829 0.852,1.826 0.852,2.99 C 0.643,-1.291 0.428,-0.603 0,0 Z"
             style="fill:none;stroke:#231f20;stroke-width:1;stroke-linecap:butt;stroke-linejoin:miter;stroke-miterlimit:10;stroke-dasharray:none;stroke-opacity:1"
             id="path104" /></g></g></g></g></svg>
